<svg width="21" height="25" viewBox="0 0 21 25" fill="none" xmlns="http://www.w3.org/2000/svg">
<path d="M20.9646 8.79236L12.2076 0.0354152C12.1906 0.0184862 12.169 0.00696932 12.1454 0.00231233C12.1218 -0.00234467 12.0974 6.61807e-05 12.0752 0.00924166C12.0531 0.0184171 12.0341 0.0339478 12.0207 0.0538813C12.0073 0.0738147 12.0001 0.0972612 12 0.121274V8.02572C12 8.28412 12.1026 8.53193 12.2854 8.71464C12.4681 8.89735 12.7159 9 12.9743 9H20.8787C20.9027 8.9999 20.9262 8.9927 20.9461 8.97931C20.9661 8.96592 20.9816 8.94694 20.9908 8.92475C20.9999 8.90256 21.0023 8.87815 20.9977 8.8546C20.993 8.83104 20.9815 8.80939 20.9646 8.79236Z" fill="#222222"/>
<path d="M19.3093 10.7143H11.5412C10.8348 10.7143 10.1574 10.4321 9.65792 9.92975C9.15844 9.42742 8.87784 8.74612 8.87784 8.03571V0.223214C8.87784 0.164014 8.85446 0.107239 8.81283 0.065378C8.77121 0.0235172 8.71476 0 8.65589 0H3.55114C2.60932 0 1.70607 0.376274 1.0401 1.04605C0.374136 1.71582 0 2.62423 0 3.57143V21.4286C0 22.3758 0.374136 23.2842 1.0401 23.954C1.70607 24.6237 2.60932 25 3.55114 25H15.9801C16.9219 25 17.8252 24.6237 18.4911 23.954C19.1571 23.2842 19.5312 22.3758 19.5312 21.4286V10.9375C19.5312 10.8783 19.5079 10.8215 19.4662 10.7797C19.4246 10.7378 19.3682 10.7143 19.3093 10.7143Z" fill="#222222"/>
</svg>
