<svg width="25" height="25" viewBox="0 0 25 25" fill="none" xmlns="http://www.w3.org/2000/svg">
<path d="M9.32292 13.9583H6.85417C6.60255 13.0024 6.60255 11.9976 6.85417 11.0417H9.32292C9.25869 11.5252 9.2239 12.0122 9.21875 12.5C9.2239 12.9878 9.25869 13.4748 9.32292 13.9583ZM7.45833 9.58333H9.58333C9.82634 8.68356 10.1687 7.81362 10.6042 6.98958C9.27536 7.44344 8.15716 8.3654 7.45833 9.58333ZM17.5417 9.58333C16.8374 8.36595 15.7162 7.44462 14.3854 6.98958C14.8269 7.80967 15.1662 8.68074 15.3958 9.58333M12.5 18.3021C13.119 17.4225 13.5904 16.4479 13.8958 15.4167H11.1042C11.4096 16.4479 11.881 17.4225 12.5 18.3021ZM12.5 6.6875C11.8805 7.57053 11.409 8.54863 11.1042 9.58333H13.8958C13.591 8.54863 13.1195 7.57053 12.5 6.6875ZM7.45833 15.4167C8.16154 16.6309 9.27817 17.5515 10.6042 18.0104C10.1687 17.1864 9.82634 16.3164 9.58333 15.4167M21.875 5.20833V19.7917C21.875 20.3442 21.6555 20.8741 21.2648 21.2648C20.8741 21.6555 20.3442 21.875 19.7917 21.875H5.20833C4.6558 21.875 4.12589 21.6555 3.73519 21.2648C3.34449 20.8741 3.125 20.3442 3.125 19.7917V5.20833C3.125 4.6558 3.34449 4.12589 3.73519 3.73519C4.12589 3.34449 4.6558 3.125 5.20833 3.125H19.7917C20.3442 3.125 20.8741 3.34449 21.2648 3.73519C21.6555 4.12589 21.875 4.6558 21.875 5.20833ZM19.7917 12.5C19.7917 11.0578 19.364 9.64808 18.5628 8.44897C17.7616 7.24986 16.6228 6.31527 15.2904 5.76338C13.958 5.21149 12.4919 5.06709 11.0775 5.34844C9.66302 5.62979 8.36377 6.32425 7.34401 7.34401C6.32425 8.36377 5.62979 9.66302 5.34844 11.0775C5.06709 12.4919 5.21149 13.958 5.76338 15.2904C6.31527 16.6228 7.24986 17.7616 8.44897 18.5628C9.64808 19.364 11.0578 19.7917 12.5 19.7917C14.4339 19.7917 16.2885 19.0234 17.656 17.656C19.0234 16.2885 19.7917 14.4339 19.7917 12.5ZM15.7812 12.5C15.7761 12.9878 15.7413 13.4748 15.6771 13.9583H18.1458C18.3975 13.0024 18.3975 11.9976 18.1458 11.0417H15.6771C15.7413 11.5252 15.7761 12.0122 15.7812 12.5ZM14.3854 18.0104C15.7148 17.5529 16.8352 16.6322 17.5417 15.4167H15.3958C15.1662 16.3193 14.8269 17.1903 14.3854 18.0104ZM10.7917 11.0417C10.6362 12.0077 10.6362 12.9923 10.7917 13.9583H14.2083C14.2797 13.4754 14.3179 12.9882 14.3229 12.5C14.3182 12.0118 14.28 11.5246 14.2083 11.0417H10.7917Z" fill="#699BF7"/>
</svg>
