<svg width="25" height="25" viewBox="0 0 25 25" fill="none" xmlns="http://www.w3.org/2000/svg">
<path d="M12.5 18.75C12.8646 18.75 13.1726 18.624 13.424 18.3719C13.676 18.1205 13.8021 17.8125 13.8021 17.4479C13.8021 17.0833 13.676 16.7753 13.424 16.524C13.1726 16.2719 12.8646 16.1458 12.5 16.1458C12.1354 16.1458 11.8274 16.2719 11.576 16.524C11.324 16.7753 11.1979 17.0833 11.1979 17.4479C11.1979 17.8125 11.324 18.1205 11.576 18.3719C11.8274 18.624 12.1354 18.75 12.5 18.75ZM11.5625 14.7396H13.4896C13.4896 14.1146 13.559 13.6545 13.6979 13.3594C13.8368 13.0642 14.1319 12.691 14.5833 12.2396C15.191 11.6319 15.6208 11.124 15.8729 10.7156C16.1243 10.308 16.25 9.84375 16.25 9.32292C16.25 8.40278 15.9375 7.66042 15.3125 7.09583C14.6875 6.53194 13.8455 6.25 12.7865 6.25C11.8316 6.25 11.0201 6.48438 10.3521 6.95312C9.68333 7.42188 9.21875 8.07292 8.95833 8.90625L10.6771 9.58333C10.7986 9.11458 11.0417 8.73681 11.4062 8.45C11.7708 8.16389 12.1962 8.02083 12.6823 8.02083C13.151 8.02083 13.5417 8.14653 13.8542 8.39792C14.1667 8.65 14.3229 8.98437 14.3229 9.40104C14.3229 9.69618 14.2274 10.0087 14.0365 10.3385C13.8455 10.6684 13.5243 11.033 13.0729 11.4323C12.5 11.9358 12.1052 12.4174 11.8885 12.8771C11.6712 13.3375 11.5625 13.9583 11.5625 14.7396ZM3.125 21.875V3.125H21.875V21.875H3.125ZM5.20833 19.7917H19.7917V5.20833H5.20833V19.7917Z" fill="#222222"/>
</svg>
