<svg width="25" height="25" viewBox="0 0 25 25" fill="none" xmlns="http://www.w3.org/2000/svg">
<path d="M18.5316 20.4978C19.0077 21.181 19.778 21.1818 20.2556 20.4996L24.6491 14.2234C24.8787 13.8954 25.0079 13.4503 25.0084 12.9862C25.0089 12.522 24.8805 12.0767 24.6517 11.7482L20.2711 5.46299C20.039 5.162 19.7349 5.00029 19.4217 5.01129C19.1085 5.02229 18.8101 5.20514 18.5883 5.52206C18.3664 5.83898 18.238 6.26574 18.2297 6.7141C18.2213 7.16247 18.3336 7.59817 18.5433 7.93113L20.8337 11.2314L10.2329 11.2205C9.90861 11.2201 9.59742 11.4042 9.36778 11.7323C9.13814 12.0603 9.00886 12.5054 9.00838 12.9697C9.0079 13.4339 9.13626 13.8793 9.36523 14.2078C9.59419 14.5363 9.905 14.7211 10.2293 14.7214L20.8301 14.7323L18.5329 18.0279C18.3043 18.3557 18.1758 18.7998 18.1756 19.2628C18.1753 19.7259 18.3033 20.17 18.5316 20.4978Z" fill="#222222"/>
<path d="M2.5 0H13.75C14.413 0 15.0489 0.263392 15.5178 0.732233C15.9866 1.20107 16.25 1.83696 16.25 2.5V3.75C16.25 4.08152 16.1183 4.39946 15.8839 4.63388C15.6495 4.8683 15.3315 5 15 5C14.6685 5 14.3505 4.8683 14.1161 4.63388C13.8817 4.39946 13.75 4.08152 13.75 3.75V2.5H2.5V22.5H13.75V21.25C13.75 20.9185 13.8817 20.6005 14.1161 20.3661C14.3505 20.1317 14.6685 20 15 20C15.3315 20 15.6495 20.1317 15.8839 20.3661C16.1183 20.6005 16.25 20.9185 16.25 21.25V22.5C16.25 23.163 15.9866 23.7989 15.5178 24.2678C15.0489 24.7366 14.413 25 13.75 25H2.5C1.83696 25 1.20107 24.7366 0.732233 24.2678C0.263392 23.7989 0 23.163 0 22.5V2.5C0 1.83696 0.263392 1.20107 0.732233 0.732233C1.20107 0.263392 1.83696 0 2.5 0Z" fill="#222222"/>
</svg>
