<svg width="25" height="25" viewBox="0 0 25 25" fill="none" xmlns="http://www.w3.org/2000/svg">
<path d="M20.8333 19.4448L21.2499 20C21.308 20.0774 21.3433 20.1694 21.352 20.2657C21.3607 20.3621 21.3424 20.4589 21.2991 20.5454C21.2558 20.6319 21.1894 20.7047 21.1071 20.7556C21.0248 20.8064 20.93 20.8333 20.8333 20.8333H4.16659C4.06986 20.8333 3.97505 20.8064 3.89277 20.7556C3.81049 20.7047 3.74399 20.6319 3.70074 20.5454C3.65748 20.4589 3.63917 20.3621 3.64786 20.2657C3.65654 20.1694 3.69188 20.0774 3.74992 20L4.16659 19.4448V10.4167C4.16659 8.20653 5.04456 6.08692 6.60736 4.52411C8.17017 2.96131 10.2898 2.08334 12.4999 2.08334C14.7101 2.08334 16.8297 2.96131 18.3925 4.52411C19.9553 6.08692 20.8333 8.20653 20.8333 10.4167V19.4448ZM9.89575 21.875H15.1041C15.1041 22.5657 14.8297 23.2281 14.3413 23.7164C13.853 24.2048 13.1906 24.4792 12.4999 24.4792C11.8093 24.4792 11.1469 24.2048 10.6585 23.7164C10.1701 23.2281 9.89575 22.5657 9.89575 21.875Z" fill="#EF576A"/>
</svg>
